G04 EAGLE Gerber RS-274X export*
G75*
%MOMM*%
%FSLAX34Y34*%
%LPD*%
%INBottom Copper*%
%IPPOS*%
%AMOC8*
5,1,8,0,0,1.08239X$1,22.5*%
G01*
%ADD10P,1.583577X8X292.500000*%
%ADD11P,1.583577X8X112.500000*%
%ADD12C,1.800000*%
%ADD13C,0.127000*%
%ADD14C,0.452400*%
%ADD15C,3.327400*%
%ADD16C,0.304800*%

G36*
X759058Y2004D02*
X759058Y2004D01*
X759077Y2002D01*
X759179Y2024D01*
X759281Y2040D01*
X759298Y2050D01*
X759318Y2054D01*
X759407Y2107D01*
X759498Y2156D01*
X759512Y2170D01*
X759529Y2180D01*
X759596Y2259D01*
X759668Y2334D01*
X759676Y2352D01*
X759689Y2367D01*
X759728Y2463D01*
X759771Y2557D01*
X759773Y2577D01*
X759781Y2595D01*
X759799Y2762D01*
X759799Y946438D01*
X759796Y946458D01*
X759798Y946477D01*
X759776Y946579D01*
X759760Y946681D01*
X759750Y946698D01*
X759746Y946718D01*
X759693Y946807D01*
X759644Y946898D01*
X759630Y946912D01*
X759620Y946929D01*
X759541Y946996D01*
X759466Y947068D01*
X759448Y947076D01*
X759433Y947089D01*
X759337Y947128D01*
X759243Y947171D01*
X759223Y947173D01*
X759205Y947181D01*
X759038Y947199D01*
X2762Y947199D01*
X2742Y947196D01*
X2723Y947198D01*
X2621Y947176D01*
X2519Y947160D01*
X2502Y947150D01*
X2482Y947146D01*
X2393Y947093D01*
X2302Y947044D01*
X2288Y947030D01*
X2271Y947020D01*
X2204Y946941D01*
X2132Y946866D01*
X2124Y946848D01*
X2111Y946833D01*
X2072Y946737D01*
X2029Y946643D01*
X2027Y946623D01*
X2019Y946605D01*
X2001Y946438D01*
X2001Y2762D01*
X2004Y2742D01*
X2002Y2723D01*
X2024Y2621D01*
X2040Y2519D01*
X2050Y2502D01*
X2054Y2482D01*
X2107Y2393D01*
X2156Y2302D01*
X2170Y2288D01*
X2180Y2271D01*
X2259Y2204D01*
X2334Y2132D01*
X2352Y2124D01*
X2367Y2111D01*
X2463Y2072D01*
X2557Y2029D01*
X2577Y2027D01*
X2595Y2019D01*
X2762Y2001D01*
X759038Y2001D01*
X759058Y2004D01*
G37*
%LPC*%
G36*
X676717Y101877D02*
X676717Y101877D01*
X674647Y103947D01*
X674647Y106873D01*
X676717Y108943D01*
X678702Y108943D01*
X678792Y108957D01*
X678883Y108965D01*
X678913Y108977D01*
X678945Y108982D01*
X679026Y109025D01*
X679110Y109061D01*
X679142Y109087D01*
X679162Y109098D01*
X679185Y109121D01*
X679241Y109166D01*
X680774Y110699D01*
X680827Y110773D01*
X680887Y110843D01*
X680899Y110873D01*
X680918Y110899D01*
X680945Y110986D01*
X680979Y111071D01*
X680983Y111112D01*
X680990Y111134D01*
X680989Y111166D01*
X680997Y111238D01*
X680997Y111647D01*
X680996Y111656D01*
X680996Y111660D01*
X680992Y111680D01*
X680983Y111737D01*
X680975Y111828D01*
X680963Y111858D01*
X680958Y111890D01*
X680915Y111971D01*
X680879Y112055D01*
X680853Y112087D01*
X680842Y112107D01*
X680819Y112130D01*
X680774Y112186D01*
X558591Y234369D01*
X558517Y234422D01*
X558447Y234482D01*
X558417Y234494D01*
X558391Y234513D01*
X558304Y234540D01*
X558219Y234574D01*
X558178Y234578D01*
X558156Y234585D01*
X558124Y234584D01*
X558052Y234592D01*
X556067Y234592D01*
X553997Y236662D01*
X553997Y239588D01*
X556067Y241658D01*
X558993Y241658D01*
X561063Y239588D01*
X561063Y237603D01*
X561077Y237513D01*
X561085Y237422D01*
X561097Y237392D01*
X561102Y237360D01*
X561145Y237279D01*
X561181Y237195D01*
X561207Y237163D01*
X561218Y237143D01*
X561241Y237120D01*
X561286Y237064D01*
X682834Y115516D01*
X682908Y115463D01*
X682978Y115403D01*
X683008Y115391D01*
X683034Y115372D01*
X683121Y115345D01*
X683206Y115311D01*
X683247Y115307D01*
X683269Y115300D01*
X683301Y115301D01*
X683373Y115293D01*
X685993Y115293D01*
X688063Y113223D01*
X688063Y110297D01*
X685993Y108227D01*
X684008Y108227D01*
X683918Y108213D01*
X683827Y108205D01*
X683797Y108193D01*
X683765Y108188D01*
X683684Y108145D01*
X683600Y108109D01*
X683568Y108083D01*
X683548Y108072D01*
X683525Y108049D01*
X683469Y108004D01*
X681936Y106471D01*
X681883Y106397D01*
X681823Y106327D01*
X681811Y106297D01*
X681792Y106271D01*
X681765Y106184D01*
X681731Y106099D01*
X681727Y106058D01*
X681720Y106036D01*
X681721Y106004D01*
X681713Y105932D01*
X681713Y103947D01*
X679643Y101877D01*
X676717Y101877D01*
G37*
%LPD*%
%LPC*%
G36*
X503362Y912772D02*
X503362Y912772D01*
X501292Y914842D01*
X501292Y917768D01*
X503362Y919838D01*
X504090Y919838D01*
X504180Y919852D01*
X504271Y919860D01*
X504301Y919872D01*
X504333Y919877D01*
X504413Y919920D01*
X504497Y919956D01*
X504529Y919982D01*
X504550Y919993D01*
X504572Y920016D01*
X504628Y920061D01*
X509653Y925085D01*
X509665Y925102D01*
X509680Y925114D01*
X509736Y925201D01*
X509797Y925285D01*
X509802Y925304D01*
X509813Y925321D01*
X509839Y925421D01*
X509869Y925520D01*
X509868Y925540D01*
X509873Y925560D01*
X509865Y925663D01*
X509863Y925766D01*
X509856Y925785D01*
X509854Y925805D01*
X509814Y925900D01*
X509778Y925997D01*
X509766Y926013D01*
X509758Y926031D01*
X509653Y926162D01*
X509453Y926362D01*
X507889Y930137D01*
X507889Y934223D01*
X509453Y937998D01*
X512342Y940887D01*
X516117Y942451D01*
X520203Y942451D01*
X523978Y940887D01*
X526867Y937998D01*
X528431Y934223D01*
X528431Y930137D01*
X526867Y926362D01*
X523978Y923473D01*
X520203Y921909D01*
X516117Y921909D01*
X515360Y922223D01*
X515246Y922250D01*
X515133Y922278D01*
X515126Y922278D01*
X515120Y922279D01*
X515004Y922268D01*
X514888Y922259D01*
X514882Y922257D01*
X514876Y922256D01*
X514768Y922208D01*
X514661Y922163D01*
X514655Y922158D01*
X514651Y922156D01*
X514637Y922143D01*
X514530Y922058D01*
X508581Y916108D01*
X508528Y916034D01*
X508468Y915965D01*
X508456Y915935D01*
X508437Y915909D01*
X508410Y915822D01*
X508376Y915737D01*
X508372Y915696D01*
X508365Y915674D01*
X508366Y915641D01*
X508358Y915570D01*
X508358Y914842D01*
X506288Y912772D01*
X503362Y912772D01*
G37*
%LPD*%
%LPC*%
G36*
X454322Y919879D02*
X454322Y919879D01*
X450279Y921554D01*
X447184Y924649D01*
X445509Y928692D01*
X445509Y933068D01*
X447184Y937111D01*
X450279Y940206D01*
X454322Y941881D01*
X458698Y941881D01*
X462741Y940206D01*
X465836Y937111D01*
X467511Y933068D01*
X467511Y928692D01*
X465836Y924649D01*
X462741Y921554D01*
X458698Y919879D01*
X454322Y919879D01*
G37*
%LPD*%
%LPC*%
G36*
X399822Y919879D02*
X399822Y919879D01*
X395779Y921554D01*
X392684Y924649D01*
X391009Y928692D01*
X391009Y933068D01*
X392684Y937111D01*
X395779Y940206D01*
X399822Y941881D01*
X404198Y941881D01*
X408241Y940206D01*
X411336Y937111D01*
X413011Y933068D01*
X413011Y928692D01*
X411336Y924649D01*
X408241Y921554D01*
X404198Y919879D01*
X399822Y919879D01*
G37*
%LPD*%
%LPC*%
G36*
X516117Y439309D02*
X516117Y439309D01*
X512342Y440873D01*
X509453Y443762D01*
X507889Y447537D01*
X507889Y451623D01*
X509453Y455398D01*
X512342Y458287D01*
X516117Y459851D01*
X520203Y459851D01*
X523978Y458287D01*
X526867Y455398D01*
X528431Y451623D01*
X528431Y447537D01*
X526867Y443762D01*
X523978Y440873D01*
X520203Y439309D01*
X516117Y439309D01*
G37*
%LPD*%
%LPC*%
G36*
X338317Y439309D02*
X338317Y439309D01*
X334542Y440873D01*
X331653Y443762D01*
X330089Y447537D01*
X330089Y451623D01*
X331653Y455398D01*
X334542Y458287D01*
X338317Y459851D01*
X342403Y459851D01*
X346178Y458287D01*
X349067Y455398D01*
X350631Y451623D01*
X350631Y447537D01*
X349067Y443762D01*
X346178Y440873D01*
X342403Y439309D01*
X338317Y439309D01*
G37*
%LPD*%
%LPC*%
G36*
X338317Y921909D02*
X338317Y921909D01*
X334542Y923473D01*
X331653Y926362D01*
X330089Y930137D01*
X330089Y934223D01*
X331653Y937998D01*
X334542Y940887D01*
X338317Y942451D01*
X342403Y942451D01*
X346178Y940887D01*
X349067Y937998D01*
X350631Y934223D01*
X350631Y930137D01*
X349067Y926362D01*
X346178Y923473D01*
X342403Y921909D01*
X338317Y921909D01*
G37*
%LPD*%
%LPC*%
G36*
X516117Y896509D02*
X516117Y896509D01*
X512342Y898073D01*
X509453Y900962D01*
X507889Y904737D01*
X507889Y908823D01*
X509453Y912598D01*
X512342Y915487D01*
X516117Y917051D01*
X520203Y917051D01*
X523978Y915487D01*
X526867Y912598D01*
X528431Y908823D01*
X528431Y904737D01*
X526867Y900962D01*
X523978Y898073D01*
X520203Y896509D01*
X516117Y896509D01*
G37*
%LPD*%
%LPC*%
G36*
X516117Y693309D02*
X516117Y693309D01*
X512342Y694873D01*
X509453Y697762D01*
X507889Y701537D01*
X507889Y705623D01*
X509453Y709398D01*
X512342Y712287D01*
X516117Y713851D01*
X520203Y713851D01*
X523978Y712287D01*
X526867Y709398D01*
X528431Y705623D01*
X528431Y701537D01*
X526867Y697762D01*
X523978Y694873D01*
X520203Y693309D01*
X516117Y693309D01*
G37*
%LPD*%
%LPC*%
G36*
X338317Y693309D02*
X338317Y693309D01*
X334542Y694873D01*
X331653Y697762D01*
X330089Y701537D01*
X330089Y705623D01*
X331653Y709398D01*
X334542Y712287D01*
X338317Y713851D01*
X342403Y713851D01*
X346178Y712287D01*
X349067Y709398D01*
X350631Y705623D01*
X350631Y701537D01*
X349067Y697762D01*
X346178Y694873D01*
X342403Y693309D01*
X338317Y693309D01*
G37*
%LPD*%
%LPC*%
G36*
X516117Y667909D02*
X516117Y667909D01*
X512342Y669473D01*
X509453Y672362D01*
X507889Y676137D01*
X507889Y680223D01*
X509453Y683998D01*
X512342Y686887D01*
X516117Y688451D01*
X520203Y688451D01*
X523978Y686887D01*
X526867Y683998D01*
X528431Y680223D01*
X528431Y676137D01*
X526867Y672362D01*
X523978Y669473D01*
X520203Y667909D01*
X516117Y667909D01*
G37*
%LPD*%
%LPC*%
G36*
X338317Y667909D02*
X338317Y667909D01*
X334542Y669473D01*
X331653Y672362D01*
X330089Y676137D01*
X330089Y680223D01*
X331653Y683998D01*
X334542Y686887D01*
X338317Y688451D01*
X342403Y688451D01*
X346178Y686887D01*
X349067Y683998D01*
X350631Y680223D01*
X350631Y676137D01*
X349067Y672362D01*
X346178Y669473D01*
X342403Y667909D01*
X338317Y667909D01*
G37*
%LPD*%
%LPC*%
G36*
X338317Y820309D02*
X338317Y820309D01*
X334542Y821873D01*
X331653Y824762D01*
X330089Y828537D01*
X330089Y832623D01*
X331653Y836398D01*
X334542Y839287D01*
X338317Y840851D01*
X342403Y840851D01*
X346178Y839287D01*
X349067Y836398D01*
X350631Y832623D01*
X350631Y828537D01*
X349067Y824762D01*
X346178Y821873D01*
X342403Y820309D01*
X338317Y820309D01*
G37*
%LPD*%
%LPC*%
G36*
X338317Y896509D02*
X338317Y896509D01*
X334542Y898073D01*
X331653Y900962D01*
X330089Y904737D01*
X330089Y908823D01*
X331653Y912598D01*
X334542Y915487D01*
X338317Y917051D01*
X342403Y917051D01*
X346178Y915487D01*
X349067Y912598D01*
X350631Y908823D01*
X350631Y904737D01*
X349067Y900962D01*
X346178Y898073D01*
X342403Y896509D01*
X338317Y896509D01*
G37*
%LPD*%
%LPC*%
G36*
X401817Y441609D02*
X401817Y441609D01*
X398042Y443173D01*
X395153Y446062D01*
X393589Y449837D01*
X393589Y453923D01*
X395153Y457698D01*
X398042Y460587D01*
X401817Y462151D01*
X405903Y462151D01*
X409678Y460587D01*
X412567Y457698D01*
X414131Y453923D01*
X414131Y449837D01*
X412567Y446062D01*
X409678Y443173D01*
X405903Y441609D01*
X401817Y441609D01*
G37*
%LPD*%
%LPC*%
G36*
X427217Y441609D02*
X427217Y441609D01*
X423442Y443173D01*
X420553Y446062D01*
X418989Y449837D01*
X418989Y453923D01*
X420553Y457698D01*
X423442Y460587D01*
X427217Y462151D01*
X431303Y462151D01*
X435078Y460587D01*
X437967Y457698D01*
X439531Y453923D01*
X439531Y449837D01*
X437967Y446062D01*
X435078Y443173D01*
X431303Y441609D01*
X427217Y441609D01*
G37*
%LPD*%
%LPC*%
G36*
X452617Y441609D02*
X452617Y441609D01*
X448842Y443173D01*
X445953Y446062D01*
X444389Y449837D01*
X444389Y453923D01*
X445953Y457698D01*
X448842Y460587D01*
X452617Y462151D01*
X456703Y462151D01*
X460478Y460587D01*
X463367Y457698D01*
X464931Y453923D01*
X464931Y449837D01*
X463367Y446062D01*
X460478Y443173D01*
X456703Y441609D01*
X452617Y441609D01*
G37*
%LPD*%
%LPC*%
G36*
X338317Y464709D02*
X338317Y464709D01*
X334542Y466273D01*
X331653Y469162D01*
X330089Y472937D01*
X330089Y477023D01*
X331653Y480798D01*
X334542Y483687D01*
X338317Y485251D01*
X342403Y485251D01*
X346178Y483687D01*
X349067Y480798D01*
X350631Y477023D01*
X350631Y472937D01*
X349067Y469162D01*
X346178Y466273D01*
X342403Y464709D01*
X338317Y464709D01*
G37*
%LPD*%
%LPC*%
G36*
X516117Y464709D02*
X516117Y464709D01*
X512342Y466273D01*
X509453Y469162D01*
X507889Y472937D01*
X507889Y477023D01*
X509453Y480798D01*
X512342Y483687D01*
X516117Y485251D01*
X520203Y485251D01*
X523978Y483687D01*
X526867Y480798D01*
X528431Y477023D01*
X528431Y472937D01*
X526867Y469162D01*
X523978Y466273D01*
X520203Y464709D01*
X516117Y464709D01*
G37*
%LPD*%
%LPC*%
G36*
X516117Y845709D02*
X516117Y845709D01*
X512342Y847273D01*
X509453Y850162D01*
X507889Y853937D01*
X507889Y858023D01*
X509453Y861798D01*
X512342Y864687D01*
X516117Y866251D01*
X520203Y866251D01*
X523978Y864687D01*
X526867Y861798D01*
X528431Y858023D01*
X528431Y853937D01*
X526867Y850162D01*
X523978Y847273D01*
X520203Y845709D01*
X516117Y845709D01*
G37*
%LPD*%
%LPC*%
G36*
X338317Y845709D02*
X338317Y845709D01*
X334542Y847273D01*
X331653Y850162D01*
X330089Y853937D01*
X330089Y858023D01*
X331653Y861798D01*
X334542Y864687D01*
X338317Y866251D01*
X342403Y866251D01*
X346178Y864687D01*
X349067Y861798D01*
X350631Y858023D01*
X350631Y853937D01*
X349067Y850162D01*
X346178Y847273D01*
X342403Y845709D01*
X338317Y845709D01*
G37*
%LPD*%
%LPC*%
G36*
X516117Y820309D02*
X516117Y820309D01*
X512342Y821873D01*
X509453Y824762D01*
X507889Y828537D01*
X507889Y832623D01*
X509453Y836398D01*
X512342Y839287D01*
X516117Y840851D01*
X520203Y840851D01*
X523978Y839287D01*
X526867Y836398D01*
X528431Y832623D01*
X528431Y828537D01*
X526867Y824762D01*
X523978Y821873D01*
X520203Y820309D01*
X516117Y820309D01*
G37*
%LPD*%
%LPC*%
G36*
X516117Y794909D02*
X516117Y794909D01*
X512342Y796473D01*
X509453Y799362D01*
X507889Y803137D01*
X507889Y807223D01*
X509453Y810998D01*
X512342Y813887D01*
X516117Y815451D01*
X520203Y815451D01*
X523978Y813887D01*
X526867Y810998D01*
X528431Y807223D01*
X528431Y803137D01*
X526867Y799362D01*
X523978Y796473D01*
X520203Y794909D01*
X516117Y794909D01*
G37*
%LPD*%
%LPC*%
G36*
X338317Y794909D02*
X338317Y794909D01*
X334542Y796473D01*
X331653Y799362D01*
X330089Y803137D01*
X330089Y807223D01*
X331653Y810998D01*
X334542Y813887D01*
X338317Y815451D01*
X342403Y815451D01*
X346178Y813887D01*
X349067Y810998D01*
X350631Y807223D01*
X350631Y803137D01*
X349067Y799362D01*
X346178Y796473D01*
X342403Y794909D01*
X338317Y794909D01*
G37*
%LPD*%
%LPC*%
G36*
X516117Y769509D02*
X516117Y769509D01*
X512342Y771073D01*
X509453Y773962D01*
X507889Y777737D01*
X507889Y781823D01*
X509453Y785598D01*
X512342Y788487D01*
X516117Y790051D01*
X520203Y790051D01*
X523978Y788487D01*
X526867Y785598D01*
X528431Y781823D01*
X528431Y777737D01*
X526867Y773962D01*
X523978Y771073D01*
X520203Y769509D01*
X516117Y769509D01*
G37*
%LPD*%
%LPC*%
G36*
X338317Y769509D02*
X338317Y769509D01*
X334542Y771073D01*
X331653Y773962D01*
X330089Y777737D01*
X330089Y781823D01*
X331653Y785598D01*
X334542Y788487D01*
X338317Y790051D01*
X342403Y790051D01*
X346178Y788487D01*
X349067Y785598D01*
X350631Y781823D01*
X350631Y777737D01*
X349067Y773962D01*
X346178Y771073D01*
X342403Y769509D01*
X338317Y769509D01*
G37*
%LPD*%
%LPC*%
G36*
X516117Y642509D02*
X516117Y642509D01*
X512342Y644073D01*
X509453Y646962D01*
X507889Y650737D01*
X507889Y654823D01*
X509453Y658598D01*
X512342Y661487D01*
X516117Y663051D01*
X520203Y663051D01*
X523978Y661487D01*
X526867Y658598D01*
X528431Y654823D01*
X528431Y650737D01*
X526867Y646962D01*
X523978Y644073D01*
X520203Y642509D01*
X516117Y642509D01*
G37*
%LPD*%
%LPC*%
G36*
X338317Y642509D02*
X338317Y642509D01*
X334542Y644073D01*
X331653Y646962D01*
X330089Y650737D01*
X330089Y654823D01*
X331653Y658598D01*
X334542Y661487D01*
X338317Y663051D01*
X342403Y663051D01*
X346178Y661487D01*
X349067Y658598D01*
X350631Y654823D01*
X350631Y650737D01*
X349067Y646962D01*
X346178Y644073D01*
X342403Y642509D01*
X338317Y642509D01*
G37*
%LPD*%
%LPC*%
G36*
X338317Y515509D02*
X338317Y515509D01*
X334542Y517073D01*
X331653Y519962D01*
X330089Y523737D01*
X330089Y527823D01*
X331653Y531598D01*
X334542Y534487D01*
X338317Y536051D01*
X342403Y536051D01*
X346178Y534487D01*
X349067Y531598D01*
X350631Y527823D01*
X350631Y523737D01*
X349067Y519962D01*
X346178Y517073D01*
X342403Y515509D01*
X338317Y515509D01*
G37*
%LPD*%
%LPC*%
G36*
X516117Y515509D02*
X516117Y515509D01*
X512342Y517073D01*
X509453Y519962D01*
X507889Y523737D01*
X507889Y527823D01*
X509453Y531598D01*
X512342Y534487D01*
X516117Y536051D01*
X520203Y536051D01*
X523978Y534487D01*
X526867Y531598D01*
X528431Y527823D01*
X528431Y523737D01*
X526867Y519962D01*
X523978Y517073D01*
X520203Y515509D01*
X516117Y515509D01*
G37*
%LPD*%
%LPC*%
G36*
X338317Y540909D02*
X338317Y540909D01*
X334542Y542473D01*
X331653Y545362D01*
X330089Y549137D01*
X330089Y553223D01*
X331653Y556998D01*
X334542Y559887D01*
X338317Y561451D01*
X342403Y561451D01*
X346178Y559887D01*
X349067Y556998D01*
X350631Y553223D01*
X350631Y549137D01*
X349067Y545362D01*
X346178Y542473D01*
X342403Y540909D01*
X338317Y540909D01*
G37*
%LPD*%
%LPC*%
G36*
X516117Y540909D02*
X516117Y540909D01*
X512342Y542473D01*
X509453Y545362D01*
X507889Y549137D01*
X507889Y553223D01*
X509453Y556998D01*
X512342Y559887D01*
X516117Y561451D01*
X520203Y561451D01*
X523978Y559887D01*
X526867Y556998D01*
X528431Y553223D01*
X528431Y549137D01*
X526867Y545362D01*
X523978Y542473D01*
X520203Y540909D01*
X516117Y540909D01*
G37*
%LPD*%
%LPC*%
G36*
X338317Y566309D02*
X338317Y566309D01*
X334542Y567873D01*
X331653Y570762D01*
X330089Y574537D01*
X330089Y578623D01*
X331653Y582398D01*
X334542Y585287D01*
X338317Y586851D01*
X342403Y586851D01*
X346178Y585287D01*
X349067Y582398D01*
X350631Y578623D01*
X350631Y574537D01*
X349067Y570762D01*
X346178Y567873D01*
X342403Y566309D01*
X338317Y566309D01*
G37*
%LPD*%
%LPC*%
G36*
X338317Y591709D02*
X338317Y591709D01*
X334542Y593273D01*
X331653Y596162D01*
X330089Y599937D01*
X330089Y604023D01*
X331653Y607798D01*
X334542Y610687D01*
X338317Y612251D01*
X342403Y612251D01*
X346178Y610687D01*
X349067Y607798D01*
X350631Y604023D01*
X350631Y599937D01*
X349067Y596162D01*
X346178Y593273D01*
X342403Y591709D01*
X338317Y591709D01*
G37*
%LPD*%
%LPC*%
G36*
X516117Y566309D02*
X516117Y566309D01*
X512342Y567873D01*
X509453Y570762D01*
X507889Y574537D01*
X507889Y578623D01*
X509453Y582398D01*
X512342Y585287D01*
X516117Y586851D01*
X520203Y586851D01*
X523978Y585287D01*
X526867Y582398D01*
X528431Y578623D01*
X528431Y574537D01*
X526867Y570762D01*
X523978Y567873D01*
X520203Y566309D01*
X516117Y566309D01*
G37*
%LPD*%
%LPC*%
G36*
X516117Y591709D02*
X516117Y591709D01*
X512342Y593273D01*
X509453Y596162D01*
X507889Y599937D01*
X507889Y604023D01*
X509453Y607798D01*
X512342Y610687D01*
X516117Y612251D01*
X520203Y612251D01*
X523978Y610687D01*
X526867Y607798D01*
X528431Y604023D01*
X528431Y599937D01*
X526867Y596162D01*
X523978Y593273D01*
X520203Y591709D01*
X516117Y591709D01*
G37*
%LPD*%
%LPC*%
G36*
X516117Y718709D02*
X516117Y718709D01*
X512342Y720273D01*
X509453Y723162D01*
X507889Y726937D01*
X507889Y731023D01*
X509453Y734798D01*
X512342Y737687D01*
X516117Y739251D01*
X520203Y739251D01*
X523978Y737687D01*
X526867Y734798D01*
X528431Y731023D01*
X528431Y726937D01*
X526867Y723162D01*
X523978Y720273D01*
X520203Y718709D01*
X516117Y718709D01*
G37*
%LPD*%
%LPC*%
G36*
X338317Y718709D02*
X338317Y718709D01*
X334542Y720273D01*
X331653Y723162D01*
X330089Y726937D01*
X330089Y731023D01*
X331653Y734798D01*
X334542Y737687D01*
X338317Y739251D01*
X342403Y739251D01*
X346178Y737687D01*
X349067Y734798D01*
X350631Y731023D01*
X350631Y726937D01*
X349067Y723162D01*
X346178Y720273D01*
X342403Y718709D01*
X338317Y718709D01*
G37*
%LPD*%
%LPC*%
G36*
X451620Y891079D02*
X451620Y891079D01*
X448128Y892526D01*
X445456Y895198D01*
X444009Y898690D01*
X444009Y902470D01*
X445456Y905962D01*
X448128Y908634D01*
X451620Y910081D01*
X455400Y910081D01*
X458892Y908634D01*
X461564Y905962D01*
X463011Y902470D01*
X463011Y898690D01*
X461564Y895198D01*
X458892Y892526D01*
X455400Y891079D01*
X451620Y891079D01*
G37*
%LPD*%
%LPC*%
G36*
X403120Y891079D02*
X403120Y891079D01*
X399628Y892526D01*
X396956Y895198D01*
X395509Y898690D01*
X395509Y902470D01*
X396956Y905962D01*
X399628Y908634D01*
X403120Y910081D01*
X406900Y910081D01*
X410392Y908634D01*
X413064Y905962D01*
X414511Y902470D01*
X414511Y898690D01*
X413064Y895198D01*
X410392Y892526D01*
X406900Y891079D01*
X403120Y891079D01*
G37*
%LPD*%
%LPC*%
G36*
X39624Y298754D02*
X39624Y298754D01*
X34594Y303784D01*
X34594Y310896D01*
X39624Y315926D01*
X46736Y315926D01*
X51766Y310896D01*
X51766Y303784D01*
X46736Y298754D01*
X39624Y298754D01*
G37*
%LPD*%
%LPC*%
G36*
X39624Y235254D02*
X39624Y235254D01*
X34594Y240284D01*
X34594Y247396D01*
X39624Y252426D01*
X46736Y252426D01*
X51766Y247396D01*
X51766Y240284D01*
X46736Y235254D01*
X39624Y235254D01*
G37*
%LPD*%
%LPC*%
G36*
X39624Y273354D02*
X39624Y273354D01*
X34594Y278384D01*
X34594Y285496D01*
X39624Y290526D01*
X46736Y290526D01*
X51766Y285496D01*
X51766Y278384D01*
X46736Y273354D01*
X39624Y273354D01*
G37*
%LPD*%
%LPC*%
G36*
X39624Y209854D02*
X39624Y209854D01*
X34594Y214884D01*
X34594Y221996D01*
X39624Y227026D01*
X46736Y227026D01*
X51766Y221996D01*
X51766Y214884D01*
X46736Y209854D01*
X39624Y209854D01*
G37*
%LPD*%
%LPC*%
G36*
X451104Y148894D02*
X451104Y148894D01*
X446074Y153924D01*
X446074Y161036D01*
X451104Y166066D01*
X458216Y166066D01*
X463246Y161036D01*
X463246Y153924D01*
X458216Y148894D01*
X451104Y148894D01*
G37*
%LPD*%
%LPC*%
G36*
X597342Y121562D02*
X597342Y121562D01*
X595272Y123632D01*
X595272Y126558D01*
X597342Y128628D01*
X598070Y128628D01*
X598160Y128642D01*
X598251Y128650D01*
X598281Y128662D01*
X598313Y128667D01*
X598393Y128710D01*
X598477Y128746D01*
X598509Y128772D01*
X598530Y128783D01*
X598552Y128806D01*
X598608Y128851D01*
X605209Y135452D01*
X605253Y135512D01*
X605291Y135553D01*
X605298Y135567D01*
X605322Y135595D01*
X605334Y135625D01*
X605353Y135651D01*
X605380Y135738D01*
X605393Y135771D01*
X605395Y135776D01*
X605395Y135777D01*
X605414Y135823D01*
X605418Y135864D01*
X605425Y135886D01*
X605424Y135919D01*
X605432Y135990D01*
X605432Y136718D01*
X607241Y138527D01*
X607252Y138543D01*
X607268Y138555D01*
X607324Y138643D01*
X607384Y138726D01*
X607390Y138745D01*
X607401Y138762D01*
X607426Y138863D01*
X607457Y138962D01*
X607456Y138981D01*
X607461Y139001D01*
X607453Y139104D01*
X607450Y139207D01*
X607443Y139226D01*
X607442Y139246D01*
X607401Y139341D01*
X607366Y139438D01*
X607353Y139454D01*
X607345Y139472D01*
X607241Y139603D01*
X605432Y141412D01*
X605432Y144338D01*
X607502Y146408D01*
X610428Y146408D01*
X612498Y144338D01*
X612498Y142353D01*
X612512Y142263D01*
X612520Y142172D01*
X612532Y142142D01*
X612537Y142110D01*
X612580Y142029D01*
X612616Y141945D01*
X612642Y141913D01*
X612653Y141893D01*
X612676Y141870D01*
X612721Y141814D01*
X616794Y137741D01*
X616868Y137688D01*
X616938Y137628D01*
X616968Y137616D01*
X616994Y137597D01*
X617081Y137570D01*
X617166Y137536D01*
X617207Y137532D01*
X617229Y137525D01*
X617261Y137526D01*
X617333Y137518D01*
X617413Y137518D01*
X619483Y135448D01*
X619483Y132522D01*
X617413Y130452D01*
X614487Y130452D01*
X612361Y132578D01*
X612345Y132590D01*
X612332Y132605D01*
X612245Y132661D01*
X612161Y132722D01*
X612142Y132728D01*
X612125Y132738D01*
X612025Y132764D01*
X611926Y132794D01*
X611906Y132794D01*
X611887Y132798D01*
X611784Y132790D01*
X611680Y132788D01*
X611661Y132781D01*
X611642Y132779D01*
X611547Y132739D01*
X611449Y132703D01*
X611433Y132691D01*
X611415Y132683D01*
X611284Y132578D01*
X610428Y131722D01*
X609700Y131722D01*
X609610Y131708D01*
X609519Y131700D01*
X609489Y131688D01*
X609457Y131683D01*
X609377Y131640D01*
X609293Y131604D01*
X609261Y131578D01*
X609240Y131567D01*
X609218Y131544D01*
X609162Y131499D01*
X602561Y124898D01*
X602508Y124824D01*
X602448Y124755D01*
X602436Y124725D01*
X602417Y124699D01*
X602390Y124612D01*
X602356Y124527D01*
X602352Y124486D01*
X602345Y124464D01*
X602346Y124431D01*
X602338Y124360D01*
X602338Y123632D01*
X600268Y121562D01*
X597342Y121562D01*
G37*
%LPD*%
%LPC*%
G36*
X533842Y214907D02*
X533842Y214907D01*
X531772Y216977D01*
X531772Y219903D01*
X533842Y221973D01*
X535827Y221973D01*
X535917Y221987D01*
X536008Y221995D01*
X536038Y222007D01*
X536070Y222012D01*
X536150Y222055D01*
X536235Y222091D01*
X536267Y222117D01*
X536287Y222128D01*
X536310Y222151D01*
X536366Y222196D01*
X537271Y223101D01*
X537283Y223117D01*
X537298Y223130D01*
X537354Y223217D01*
X537415Y223301D01*
X537421Y223320D01*
X537431Y223337D01*
X537457Y223437D01*
X537487Y223536D01*
X537487Y223556D01*
X537491Y223575D01*
X537483Y223678D01*
X537481Y223782D01*
X537474Y223801D01*
X537472Y223821D01*
X537432Y223915D01*
X537396Y224013D01*
X537384Y224029D01*
X537376Y224047D01*
X537271Y224178D01*
X536217Y225232D01*
X536217Y228158D01*
X538287Y230228D01*
X541213Y230228D01*
X543283Y228158D01*
X543283Y225232D01*
X541879Y223828D01*
X541826Y223754D01*
X541766Y223684D01*
X541754Y223654D01*
X541735Y223628D01*
X541708Y223541D01*
X541674Y223456D01*
X541670Y223415D01*
X541663Y223393D01*
X541664Y223361D01*
X541656Y223289D01*
X541656Y222096D01*
X539061Y219501D01*
X539008Y219427D01*
X538995Y219412D01*
X538969Y219385D01*
X538967Y219379D01*
X538948Y219357D01*
X538936Y219327D01*
X538917Y219301D01*
X538891Y219217D01*
X538866Y219162D01*
X538864Y219150D01*
X538856Y219129D01*
X538852Y219088D01*
X538845Y219066D01*
X538846Y219034D01*
X538838Y218962D01*
X538838Y216977D01*
X536768Y214907D01*
X533842Y214907D01*
G37*
%LPD*%
%LPC*%
G36*
X519683Y501903D02*
X519683Y501903D01*
X519683Y511823D01*
X520862Y511637D01*
X522590Y511075D01*
X524209Y510251D01*
X525678Y509183D01*
X526963Y507898D01*
X528031Y506429D01*
X528855Y504810D01*
X529417Y503082D01*
X529603Y501903D01*
X519683Y501903D01*
G37*
%LPD*%
%LPC*%
G36*
X341883Y882903D02*
X341883Y882903D01*
X341883Y892823D01*
X343062Y892637D01*
X344790Y892075D01*
X346409Y891251D01*
X347878Y890183D01*
X349163Y888898D01*
X350231Y887429D01*
X351055Y885810D01*
X351617Y884082D01*
X351803Y882903D01*
X341883Y882903D01*
G37*
%LPD*%
%LPC*%
G36*
X519683Y882903D02*
X519683Y882903D01*
X519683Y892823D01*
X520862Y892637D01*
X522590Y892075D01*
X524209Y891251D01*
X525678Y890183D01*
X526963Y888898D01*
X528031Y887429D01*
X528855Y885810D01*
X529417Y884082D01*
X529603Y882903D01*
X519683Y882903D01*
G37*
%LPD*%
%LPC*%
G36*
X341883Y755903D02*
X341883Y755903D01*
X341883Y765823D01*
X343062Y765637D01*
X344790Y765075D01*
X346409Y764251D01*
X347878Y763183D01*
X349163Y761898D01*
X350231Y760429D01*
X351055Y758810D01*
X351617Y757082D01*
X351803Y755903D01*
X341883Y755903D01*
G37*
%LPD*%
%LPC*%
G36*
X519683Y755903D02*
X519683Y755903D01*
X519683Y765823D01*
X520862Y765637D01*
X522590Y765075D01*
X524209Y764251D01*
X525678Y763183D01*
X526963Y761898D01*
X528031Y760429D01*
X528855Y758810D01*
X529417Y757082D01*
X529603Y755903D01*
X519683Y755903D01*
G37*
%LPD*%
%LPC*%
G36*
X341883Y628903D02*
X341883Y628903D01*
X341883Y638823D01*
X343062Y638637D01*
X344790Y638075D01*
X346409Y637251D01*
X347878Y636183D01*
X349163Y634898D01*
X350231Y633429D01*
X351055Y631810D01*
X351617Y630082D01*
X351803Y628903D01*
X341883Y628903D01*
G37*
%LPD*%
%LPC*%
G36*
X519683Y628903D02*
X519683Y628903D01*
X519683Y638823D01*
X520862Y638637D01*
X522590Y638075D01*
X524209Y637251D01*
X525678Y636183D01*
X526963Y634898D01*
X528031Y633429D01*
X528855Y631810D01*
X529417Y630082D01*
X529603Y628903D01*
X519683Y628903D01*
G37*
%LPD*%
%LPC*%
G36*
X341883Y501903D02*
X341883Y501903D01*
X341883Y511823D01*
X343062Y511637D01*
X344790Y511075D01*
X346409Y510251D01*
X347878Y509183D01*
X349163Y507898D01*
X350231Y506429D01*
X351055Y504810D01*
X351617Y503082D01*
X351803Y501903D01*
X341883Y501903D01*
G37*
%LPD*%
%LPC*%
G36*
X341883Y879857D02*
X341883Y879857D01*
X351803Y879857D01*
X351617Y878678D01*
X351055Y876950D01*
X350231Y875331D01*
X349163Y873862D01*
X347878Y872577D01*
X346409Y871509D01*
X344790Y870685D01*
X343062Y870123D01*
X341883Y869937D01*
X341883Y879857D01*
G37*
%LPD*%
%LPC*%
G36*
X341883Y752857D02*
X341883Y752857D01*
X351803Y752857D01*
X351617Y751678D01*
X351055Y749950D01*
X350231Y748331D01*
X349163Y746862D01*
X347878Y745577D01*
X346409Y744509D01*
X344790Y743685D01*
X343062Y743123D01*
X341883Y742937D01*
X341883Y752857D01*
G37*
%LPD*%
%LPC*%
G36*
X519683Y752857D02*
X519683Y752857D01*
X529603Y752857D01*
X529417Y751678D01*
X528855Y749950D01*
X528031Y748331D01*
X526963Y746862D01*
X525678Y745577D01*
X524209Y744509D01*
X522590Y743685D01*
X520862Y743123D01*
X519683Y742937D01*
X519683Y752857D01*
G37*
%LPD*%
%LPC*%
G36*
X519683Y625857D02*
X519683Y625857D01*
X529603Y625857D01*
X529417Y624678D01*
X528855Y622950D01*
X528031Y621331D01*
X526963Y619862D01*
X525678Y618577D01*
X524209Y617509D01*
X522590Y616685D01*
X520862Y616123D01*
X519683Y615937D01*
X519683Y625857D01*
G37*
%LPD*%
%LPC*%
G36*
X341883Y625857D02*
X341883Y625857D01*
X351803Y625857D01*
X351617Y624678D01*
X351055Y622950D01*
X350231Y621331D01*
X349163Y619862D01*
X347878Y618577D01*
X346409Y617509D01*
X344790Y616685D01*
X343062Y616123D01*
X341883Y615937D01*
X341883Y625857D01*
G37*
%LPD*%
%LPC*%
G36*
X506717Y755903D02*
X506717Y755903D01*
X506903Y757082D01*
X507465Y758810D01*
X508289Y760429D01*
X509357Y761898D01*
X510642Y763183D01*
X512111Y764251D01*
X513730Y765075D01*
X515458Y765637D01*
X516637Y765823D01*
X516637Y755903D01*
X506717Y755903D01*
G37*
%LPD*%
%LPC*%
G36*
X328917Y755903D02*
X328917Y755903D01*
X329103Y757082D01*
X329665Y758810D01*
X330489Y760429D01*
X331557Y761898D01*
X332842Y763183D01*
X334311Y764251D01*
X335930Y765075D01*
X337658Y765637D01*
X338837Y765823D01*
X338837Y755903D01*
X328917Y755903D01*
G37*
%LPD*%
%LPC*%
G36*
X328917Y628903D02*
X328917Y628903D01*
X329103Y630082D01*
X329665Y631810D01*
X330489Y633429D01*
X331557Y634898D01*
X332842Y636183D01*
X334311Y637251D01*
X335930Y638075D01*
X337658Y638637D01*
X338837Y638823D01*
X338837Y628903D01*
X328917Y628903D01*
G37*
%LPD*%
%LPC*%
G36*
X506717Y628903D02*
X506717Y628903D01*
X506903Y630082D01*
X507465Y631810D01*
X508289Y633429D01*
X509357Y634898D01*
X510642Y636183D01*
X512111Y637251D01*
X513730Y638075D01*
X515458Y638637D01*
X516637Y638823D01*
X516637Y628903D01*
X506717Y628903D01*
G37*
%LPD*%
%LPC*%
G36*
X328917Y501903D02*
X328917Y501903D01*
X329103Y503082D01*
X329665Y504810D01*
X330489Y506429D01*
X331557Y507898D01*
X332842Y509183D01*
X334311Y510251D01*
X335930Y511075D01*
X337658Y511637D01*
X338837Y511823D01*
X338837Y501903D01*
X328917Y501903D01*
G37*
%LPD*%
%LPC*%
G36*
X506717Y501903D02*
X506717Y501903D01*
X506903Y503082D01*
X507465Y504810D01*
X508289Y506429D01*
X509357Y507898D01*
X510642Y509183D01*
X512111Y510251D01*
X513730Y511075D01*
X515458Y511637D01*
X516637Y511823D01*
X516637Y501903D01*
X506717Y501903D01*
G37*
%LPD*%
%LPC*%
G36*
X506717Y882903D02*
X506717Y882903D01*
X506903Y884082D01*
X507465Y885810D01*
X508289Y887429D01*
X509357Y888898D01*
X510642Y890183D01*
X512111Y891251D01*
X513730Y892075D01*
X515458Y892637D01*
X516637Y892823D01*
X516637Y882903D01*
X506717Y882903D01*
G37*
%LPD*%
%LPC*%
G36*
X519683Y879857D02*
X519683Y879857D01*
X529603Y879857D01*
X529417Y878678D01*
X528855Y876950D01*
X528031Y875331D01*
X526963Y873862D01*
X525678Y872577D01*
X524209Y871509D01*
X522590Y870685D01*
X520862Y870123D01*
X519683Y869937D01*
X519683Y879857D01*
G37*
%LPD*%
%LPC*%
G36*
X341883Y498857D02*
X341883Y498857D01*
X351803Y498857D01*
X351617Y497678D01*
X351055Y495950D01*
X350231Y494331D01*
X349163Y492862D01*
X347878Y491577D01*
X346409Y490509D01*
X344790Y489685D01*
X343062Y489123D01*
X341883Y488937D01*
X341883Y498857D01*
G37*
%LPD*%
%LPC*%
G36*
X328917Y882903D02*
X328917Y882903D01*
X329103Y884082D01*
X329665Y885810D01*
X330489Y887429D01*
X331557Y888898D01*
X332842Y890183D01*
X334311Y891251D01*
X335930Y892075D01*
X337658Y892637D01*
X338837Y892823D01*
X338837Y882903D01*
X328917Y882903D01*
G37*
%LPD*%
%LPC*%
G36*
X519683Y498857D02*
X519683Y498857D01*
X529603Y498857D01*
X529417Y497678D01*
X528855Y495950D01*
X528031Y494331D01*
X526963Y492862D01*
X525678Y491577D01*
X524209Y490509D01*
X522590Y489685D01*
X520862Y489123D01*
X519683Y488937D01*
X519683Y498857D01*
G37*
%LPD*%
%LPC*%
G36*
X515458Y489123D02*
X515458Y489123D01*
X513730Y489685D01*
X512111Y490509D01*
X510642Y491577D01*
X509357Y492862D01*
X508289Y494331D01*
X507465Y495950D01*
X506903Y497678D01*
X506717Y498857D01*
X516637Y498857D01*
X516637Y488937D01*
X515458Y489123D01*
G37*
%LPD*%
%LPC*%
G36*
X337658Y870123D02*
X337658Y870123D01*
X335930Y870685D01*
X334311Y871509D01*
X332842Y872577D01*
X331557Y873862D01*
X330489Y875331D01*
X329665Y876950D01*
X329103Y878678D01*
X328917Y879857D01*
X338837Y879857D01*
X338837Y869937D01*
X337658Y870123D01*
G37*
%LPD*%
%LPC*%
G36*
X515458Y743123D02*
X515458Y743123D01*
X513730Y743685D01*
X512111Y744509D01*
X510642Y745577D01*
X509357Y746862D01*
X508289Y748331D01*
X507465Y749950D01*
X506903Y751678D01*
X506717Y752857D01*
X516637Y752857D01*
X516637Y742937D01*
X515458Y743123D01*
G37*
%LPD*%
%LPC*%
G36*
X515458Y870123D02*
X515458Y870123D01*
X513730Y870685D01*
X512111Y871509D01*
X510642Y872577D01*
X509357Y873862D01*
X508289Y875331D01*
X507465Y876950D01*
X506903Y878678D01*
X506717Y879857D01*
X516637Y879857D01*
X516637Y869937D01*
X515458Y870123D01*
G37*
%LPD*%
%LPC*%
G36*
X337658Y489123D02*
X337658Y489123D01*
X335930Y489685D01*
X334311Y490509D01*
X332842Y491577D01*
X331557Y492862D01*
X330489Y494331D01*
X329665Y495950D01*
X329103Y497678D01*
X328917Y498857D01*
X338837Y498857D01*
X338837Y488937D01*
X337658Y489123D01*
G37*
%LPD*%
%LPC*%
G36*
X337658Y616123D02*
X337658Y616123D01*
X335930Y616685D01*
X334311Y617509D01*
X332842Y618577D01*
X331557Y619862D01*
X330489Y621331D01*
X329665Y622950D01*
X329103Y624678D01*
X328917Y625857D01*
X338837Y625857D01*
X338837Y615937D01*
X337658Y616123D01*
G37*
%LPD*%
%LPC*%
G36*
X515458Y616123D02*
X515458Y616123D01*
X513730Y616685D01*
X512111Y617509D01*
X510642Y618577D01*
X509357Y619862D01*
X508289Y621331D01*
X507465Y622950D01*
X506903Y624678D01*
X506717Y625857D01*
X516637Y625857D01*
X516637Y615937D01*
X515458Y616123D01*
G37*
%LPD*%
%LPC*%
G36*
X337658Y743123D02*
X337658Y743123D01*
X335930Y743685D01*
X334311Y744509D01*
X332842Y745577D01*
X331557Y746862D01*
X330489Y748331D01*
X329665Y749950D01*
X329103Y751678D01*
X328917Y752857D01*
X338837Y752857D01*
X338837Y742937D01*
X337658Y743123D01*
G37*
%LPD*%
%LPC*%
G36*
X456183Y133603D02*
X456183Y133603D01*
X456183Y141936D01*
X458742Y141936D01*
X464516Y136162D01*
X464516Y133603D01*
X456183Y133603D01*
G37*
%LPD*%
%LPC*%
G36*
X456183Y130557D02*
X456183Y130557D01*
X464516Y130557D01*
X464516Y127998D01*
X458742Y122224D01*
X456183Y122224D01*
X456183Y130557D01*
G37*
%LPD*%
%LPC*%
G36*
X444804Y133603D02*
X444804Y133603D01*
X444804Y136162D01*
X450578Y141936D01*
X453137Y141936D01*
X453137Y133603D01*
X444804Y133603D01*
G37*
%LPD*%
%LPC*%
G36*
X450578Y122224D02*
X450578Y122224D01*
X444804Y127998D01*
X444804Y130557D01*
X453137Y130557D01*
X453137Y122224D01*
X450578Y122224D01*
G37*
%LPD*%
%LPC*%
G36*
X518159Y627379D02*
X518159Y627379D01*
X518159Y627381D01*
X518161Y627381D01*
X518161Y627379D01*
X518159Y627379D01*
G37*
%LPD*%
%LPC*%
G36*
X340359Y500379D02*
X340359Y500379D01*
X340359Y500381D01*
X340361Y500381D01*
X340361Y500379D01*
X340359Y500379D01*
G37*
%LPD*%
%LPC*%
G36*
X340359Y627379D02*
X340359Y627379D01*
X340359Y627381D01*
X340361Y627381D01*
X340361Y627379D01*
X340359Y627379D01*
G37*
%LPD*%
%LPC*%
G36*
X518159Y754379D02*
X518159Y754379D01*
X518159Y754381D01*
X518161Y754381D01*
X518161Y754379D01*
X518159Y754379D01*
G37*
%LPD*%
%LPC*%
G36*
X340359Y881379D02*
X340359Y881379D01*
X340359Y881381D01*
X340361Y881381D01*
X340361Y881379D01*
X340359Y881379D01*
G37*
%LPD*%
%LPC*%
G36*
X340359Y754379D02*
X340359Y754379D01*
X340359Y754381D01*
X340361Y754381D01*
X340361Y754379D01*
X340359Y754379D01*
G37*
%LPD*%
%LPC*%
G36*
X518159Y881379D02*
X518159Y881379D01*
X518159Y881381D01*
X518161Y881381D01*
X518161Y881379D01*
X518159Y881379D01*
G37*
%LPD*%
%LPC*%
G36*
X518159Y500379D02*
X518159Y500379D01*
X518159Y500381D01*
X518161Y500381D01*
X518161Y500379D01*
X518159Y500379D01*
G37*
%LPD*%
%LPC*%
G36*
X454659Y132079D02*
X454659Y132079D01*
X454659Y132081D01*
X454661Y132081D01*
X454661Y132079D01*
X454659Y132079D01*
G37*
%LPD*%
D10*
X43180Y243840D03*
X43180Y218440D03*
D11*
X454660Y132080D03*
X454660Y157480D03*
X43180Y281940D03*
X43180Y307340D03*
D12*
X340360Y932180D03*
X340360Y906780D03*
X340360Y779780D03*
X340360Y754380D03*
X340360Y881380D03*
X340360Y855980D03*
X340360Y805180D03*
X340360Y830580D03*
X340360Y728980D03*
X340360Y703580D03*
X340360Y678180D03*
X340360Y652780D03*
X340360Y627380D03*
X340360Y601980D03*
X340360Y576580D03*
X340360Y551180D03*
X340360Y525780D03*
X340360Y500380D03*
X340360Y474980D03*
X340360Y449580D03*
X518160Y449580D03*
X518160Y474980D03*
X518160Y500380D03*
X518160Y525780D03*
X518160Y551180D03*
X518160Y576580D03*
X518160Y601980D03*
X518160Y627380D03*
X518160Y652780D03*
X518160Y678180D03*
X518160Y703580D03*
X518160Y728980D03*
X518160Y754380D03*
X518160Y779780D03*
X518160Y805180D03*
X518160Y830580D03*
X518160Y855980D03*
X518160Y881380D03*
X518160Y906780D03*
X518160Y932180D03*
X403860Y451880D03*
X429260Y451880D03*
X454660Y451880D03*
D13*
X684530Y111760D02*
X678180Y105410D01*
X683895Y111760D02*
X557530Y238125D01*
X683895Y111760D02*
X684530Y111760D01*
D14*
X678180Y105410D03*
X684530Y111760D03*
X557530Y238125D03*
D15*
X698500Y63500D03*
X63500Y63500D03*
X63500Y889000D03*
X698500Y889000D03*
D13*
X539750Y226695D02*
X539750Y222885D01*
X535305Y218440D01*
D14*
X539750Y226695D03*
X535305Y218440D03*
D16*
X504825Y916305D02*
X518160Y929640D01*
X518160Y932180D01*
X608965Y135255D02*
X598805Y125095D01*
D14*
X504825Y916305D03*
X608965Y135255D03*
X598805Y125095D03*
D13*
X615950Y133985D02*
X615950Y135890D01*
X608965Y142875D01*
D14*
X615950Y133985D03*
X608965Y142875D03*
M02*
