G04 EAGLE Gerber RS-274X export*
G75*
%MOMM*%
%FSLAX34Y34*%
%LPD*%
%IN*%
%IPPOS*%
%AMOC8*
5,1,8,0,0,1.08239X$1,22.5*%
G01*
%ADD10C,0.254000*%


D10*
X0Y0D02*
X761800Y0D01*
X761800Y949200D01*
X0Y949200D01*
X0Y0D01*
X411010Y930487D02*
X410942Y929704D01*
X410805Y928930D01*
X410602Y928171D01*
X410333Y927433D01*
X410001Y926720D01*
X409608Y926040D01*
X409157Y925396D01*
X408652Y924794D01*
X408096Y924238D01*
X407494Y923733D01*
X406850Y923282D01*
X406170Y922889D01*
X405457Y922557D01*
X404719Y922288D01*
X403960Y922085D01*
X403186Y921949D01*
X402403Y921880D01*
X401617Y921880D01*
X400834Y921949D01*
X400060Y922085D01*
X399301Y922288D01*
X398563Y922557D01*
X397850Y922889D01*
X397170Y923282D01*
X396526Y923733D01*
X395924Y924238D01*
X395368Y924794D01*
X394863Y925396D01*
X394412Y926040D01*
X394019Y926720D01*
X393687Y927433D01*
X393418Y928171D01*
X393215Y928930D01*
X393079Y929704D01*
X393010Y930487D01*
X393010Y931273D01*
X393079Y932056D01*
X393215Y932830D01*
X393418Y933589D01*
X393687Y934327D01*
X394019Y935040D01*
X394412Y935720D01*
X394863Y936364D01*
X395368Y936966D01*
X395924Y937522D01*
X396526Y938027D01*
X397170Y938478D01*
X397850Y938871D01*
X398563Y939203D01*
X399301Y939472D01*
X400060Y939675D01*
X400834Y939812D01*
X401617Y939880D01*
X402403Y939880D01*
X403186Y939812D01*
X403960Y939675D01*
X404719Y939472D01*
X405457Y939203D01*
X406170Y938871D01*
X406850Y938478D01*
X407494Y938027D01*
X408096Y937522D01*
X408652Y936966D01*
X409157Y936364D01*
X409608Y935720D01*
X410001Y935040D01*
X410333Y934327D01*
X410602Y933589D01*
X410805Y932830D01*
X410942Y932056D01*
X411010Y931273D01*
X411010Y930487D01*
X465510Y930487D02*
X465442Y929704D01*
X465305Y928930D01*
X465102Y928171D01*
X464833Y927433D01*
X464501Y926720D01*
X464108Y926040D01*
X463657Y925396D01*
X463152Y924794D01*
X462596Y924238D01*
X461994Y923733D01*
X461350Y923282D01*
X460670Y922889D01*
X459957Y922557D01*
X459219Y922288D01*
X458460Y922085D01*
X457686Y921949D01*
X456903Y921880D01*
X456117Y921880D01*
X455334Y921949D01*
X454560Y922085D01*
X453801Y922288D01*
X453063Y922557D01*
X452350Y922889D01*
X451670Y923282D01*
X451026Y923733D01*
X450424Y924238D01*
X449868Y924794D01*
X449363Y925396D01*
X448912Y926040D01*
X448519Y926720D01*
X448187Y927433D01*
X447918Y928171D01*
X447715Y928930D01*
X447579Y929704D01*
X447510Y930487D01*
X447510Y931273D01*
X447579Y932056D01*
X447715Y932830D01*
X447918Y933589D01*
X448187Y934327D01*
X448519Y935040D01*
X448912Y935720D01*
X449363Y936364D01*
X449868Y936966D01*
X450424Y937522D01*
X451026Y938027D01*
X451670Y938478D01*
X452350Y938871D01*
X453063Y939203D01*
X453801Y939472D01*
X454560Y939675D01*
X455334Y939812D01*
X456117Y939880D01*
X456903Y939880D01*
X457686Y939812D01*
X458460Y939675D01*
X459219Y939472D01*
X459957Y939203D01*
X460670Y938871D01*
X461350Y938478D01*
X461994Y938027D01*
X462596Y937522D01*
X463152Y936966D01*
X463657Y936364D01*
X464108Y935720D01*
X464501Y935040D01*
X464833Y934327D01*
X465102Y933589D01*
X465305Y932830D01*
X465442Y932056D01*
X465510Y931273D01*
X465510Y930487D01*
X412510Y900212D02*
X412438Y899478D01*
X412294Y898755D01*
X412080Y898050D01*
X411798Y897369D01*
X411451Y896720D01*
X411041Y896107D01*
X410574Y895537D01*
X410053Y895016D01*
X409483Y894549D01*
X408870Y894139D01*
X408221Y893792D01*
X407540Y893510D01*
X406835Y893296D01*
X406112Y893152D01*
X405378Y893080D01*
X404642Y893080D01*
X403908Y893152D01*
X403185Y893296D01*
X402480Y893510D01*
X401799Y893792D01*
X401150Y894139D01*
X400537Y894549D01*
X399967Y895016D01*
X399446Y895537D01*
X398979Y896107D01*
X398569Y896720D01*
X398222Y897369D01*
X397940Y898050D01*
X397726Y898755D01*
X397582Y899478D01*
X397510Y900212D01*
X397510Y900948D01*
X397582Y901682D01*
X397726Y902405D01*
X397940Y903110D01*
X398222Y903791D01*
X398569Y904440D01*
X398979Y905053D01*
X399446Y905623D01*
X399967Y906144D01*
X400537Y906611D01*
X401150Y907021D01*
X401799Y907368D01*
X402480Y907650D01*
X403185Y907864D01*
X403908Y908008D01*
X404642Y908080D01*
X405378Y908080D01*
X406112Y908008D01*
X406835Y907864D01*
X407540Y907650D01*
X408221Y907368D01*
X408870Y907021D01*
X409483Y906611D01*
X410053Y906144D01*
X410574Y905623D01*
X411041Y905053D01*
X411451Y904440D01*
X411798Y903791D01*
X412080Y903110D01*
X412294Y902405D01*
X412438Y901682D01*
X412510Y900948D01*
X412510Y900212D01*
X461010Y900212D02*
X460938Y899478D01*
X460794Y898755D01*
X460580Y898050D01*
X460298Y897369D01*
X459951Y896720D01*
X459541Y896107D01*
X459074Y895537D01*
X458553Y895016D01*
X457983Y894549D01*
X457370Y894139D01*
X456721Y893792D01*
X456040Y893510D01*
X455335Y893296D01*
X454612Y893152D01*
X453878Y893080D01*
X453142Y893080D01*
X452408Y893152D01*
X451685Y893296D01*
X450980Y893510D01*
X450299Y893792D01*
X449650Y894139D01*
X449037Y894549D01*
X448467Y895016D01*
X447946Y895537D01*
X447479Y896107D01*
X447069Y896720D01*
X446722Y897369D01*
X446440Y898050D01*
X446226Y898755D01*
X446082Y899478D01*
X446010Y900212D01*
X446010Y900948D01*
X446082Y901682D01*
X446226Y902405D01*
X446440Y903110D01*
X446722Y903791D01*
X447069Y904440D01*
X447479Y905053D01*
X447946Y905623D01*
X448467Y906144D01*
X449037Y906611D01*
X449650Y907021D01*
X450299Y907368D01*
X450980Y907650D01*
X451685Y907864D01*
X452408Y908008D01*
X453142Y908080D01*
X453878Y908080D01*
X454612Y908008D01*
X455335Y907864D01*
X456040Y907650D01*
X456721Y907368D01*
X457370Y907021D01*
X457983Y906611D01*
X458553Y906144D01*
X459074Y905623D01*
X459541Y905053D01*
X459951Y904440D01*
X460298Y903791D01*
X460580Y903110D01*
X460794Y902405D01*
X460938Y901682D01*
X461010Y900948D01*
X461010Y900212D01*
M02*
