G04 EAGLE Gerber RS-274X export*
G75*
%MOMM*%
%FSLAX34Y34*%
%LPD*%
%INSolderpaste Top*%
%IPPOS*%
%AMOC8*
5,1,8,0,0,1.08239X$1,22.5*%
G01*
%ADD10R,1.500000X1.300000*%
%ADD11R,1.200000X0.300000*%
%ADD12R,3.500000X1.700000*%
%ADD13R,1.700000X3.500000*%
%ADD14R,1.400000X1.000000*%
%ADD15R,1.300000X1.500000*%
%ADD16R,2.200000X0.600000*%
%ADD17R,1.500000X0.600000*%


D10*
X474980Y41300D03*
X474980Y60300D03*
X523240Y41300D03*
X523240Y60300D03*
X678180Y57760D03*
X678180Y38760D03*
X607060Y70460D03*
X607060Y51460D03*
X558800Y41300D03*
X558800Y60300D03*
D11*
X625640Y139300D03*
X625640Y132800D03*
X625640Y126300D03*
X625640Y119800D03*
X583390Y119800D03*
X583390Y126300D03*
X583390Y132800D03*
X583390Y139300D03*
D10*
X525780Y227940D03*
X525780Y208940D03*
X551180Y225400D03*
X551180Y206400D03*
X576580Y227940D03*
X576580Y208940D03*
X703580Y212700D03*
X703580Y193700D03*
X459740Y349860D03*
X459740Y330860D03*
D12*
X329260Y932180D03*
X329260Y906780D03*
X329260Y881380D03*
X329260Y855980D03*
X329260Y830580D03*
X329260Y805180D03*
X329260Y779780D03*
X329260Y754380D03*
X329260Y728980D03*
X329260Y703580D03*
X329260Y678180D03*
X329260Y652780D03*
X329260Y627380D03*
X329260Y601980D03*
X329260Y576580D03*
X329260Y551180D03*
X329260Y525780D03*
X329260Y500380D03*
X329260Y474980D03*
X329260Y449580D03*
X529260Y449580D03*
X529260Y474980D03*
X529260Y500380D03*
X529260Y525780D03*
X529260Y551180D03*
X529260Y576580D03*
X529260Y601980D03*
X529260Y627380D03*
X529260Y652780D03*
X529260Y678180D03*
X529260Y703580D03*
X529260Y728980D03*
X529260Y754380D03*
X529260Y779780D03*
X529260Y805180D03*
X529260Y830580D03*
X529260Y855980D03*
X529260Y881380D03*
X529260Y906780D03*
X529260Y932180D03*
D13*
X403860Y441630D03*
X429260Y441630D03*
X454660Y441630D03*
D14*
X239600Y330200D03*
X217600Y320700D03*
X217600Y339700D03*
D15*
X690220Y777240D03*
X671220Y777240D03*
X192380Y431800D03*
X173380Y431800D03*
D16*
X111160Y824230D03*
X163160Y824230D03*
X111160Y836930D03*
X111160Y811530D03*
X111160Y798830D03*
X163160Y836930D03*
X163160Y811530D03*
X163160Y798830D03*
D15*
X705460Y751840D03*
X686460Y751840D03*
X700380Y812800D03*
X681380Y812800D03*
D17*
X224180Y542900D03*
X224180Y523900D03*
X243180Y533400D03*
D15*
X112420Y416560D03*
X131420Y416560D03*
X39980Y406400D03*
X20980Y406400D03*
M02*
