G04 EAGLE Gerber RS-274X export*
G75*
%MOMM*%
%FSLAX34Y34*%
%LPD*%
%INSoldermask Top*%
%IPPOS*%
%AMOC8*
5,1,8,0,0,1.08239X$1,22.5*%
G01*
%ADD10R,1.703200X1.503200*%
%ADD11R,1.403200X0.503200*%
%ADD12P,1.803519X8X292.500000*%
%ADD13P,1.803519X8X112.500000*%
%ADD14C,2.003200*%
%ADD15R,3.703200X1.903200*%
%ADD16C,1.703200*%
%ADD17R,1.903200X3.703200*%
%ADD18R,1.603200X1.203200*%
%ADD19R,1.503200X1.703200*%
%ADD20R,2.403200X0.803200*%
%ADD21R,1.703200X0.803200*%
%ADD22C,0.655600*%
%ADD23C,3.530600*%


D10*
X474980Y41300D03*
X474980Y60300D03*
X523240Y41300D03*
X523240Y60300D03*
X678180Y57760D03*
X678180Y38760D03*
X607060Y70460D03*
X607060Y51460D03*
X558800Y41300D03*
X558800Y60300D03*
D11*
X625640Y139300D03*
X625640Y132800D03*
X625640Y126300D03*
X625640Y119800D03*
X583390Y119800D03*
X583390Y126300D03*
X583390Y132800D03*
X583390Y139300D03*
D12*
X43180Y243840D03*
X43180Y218440D03*
D13*
X454660Y132080D03*
X454660Y157480D03*
X43180Y281940D03*
X43180Y307340D03*
D10*
X525780Y227940D03*
X525780Y208940D03*
X551180Y225400D03*
X551180Y206400D03*
X576580Y227940D03*
X576580Y208940D03*
X703580Y212700D03*
X703580Y193700D03*
X459740Y349860D03*
X459740Y330860D03*
D14*
X340360Y932180D03*
X340360Y906780D03*
X340360Y779780D03*
X340360Y754380D03*
X340360Y881380D03*
X340360Y855980D03*
X340360Y805180D03*
X340360Y830580D03*
X340360Y728980D03*
X340360Y703580D03*
X340360Y678180D03*
X340360Y652780D03*
X340360Y627380D03*
X340360Y601980D03*
X340360Y576580D03*
X340360Y551180D03*
X340360Y525780D03*
X340360Y500380D03*
X340360Y474980D03*
X340360Y449580D03*
X518160Y449580D03*
X518160Y474980D03*
X518160Y500380D03*
X518160Y525780D03*
X518160Y551180D03*
X518160Y576580D03*
X518160Y601980D03*
X518160Y627380D03*
X518160Y652780D03*
X518160Y678180D03*
X518160Y703580D03*
X518160Y728980D03*
X518160Y754380D03*
X518160Y779780D03*
X518160Y805180D03*
X518160Y830580D03*
X518160Y855980D03*
X518160Y881380D03*
X518160Y906780D03*
X518160Y932180D03*
D15*
X329260Y932180D03*
X329260Y906780D03*
X329260Y881380D03*
X329260Y855980D03*
X329260Y830580D03*
X329260Y805180D03*
X329260Y779780D03*
X329260Y754380D03*
X329260Y728980D03*
X329260Y703580D03*
X329260Y678180D03*
X329260Y652780D03*
X329260Y627380D03*
X329260Y601980D03*
X329260Y576580D03*
X329260Y551180D03*
X329260Y525780D03*
X329260Y500380D03*
X329260Y474980D03*
X329260Y449580D03*
X529260Y449580D03*
X529260Y474980D03*
X529260Y500380D03*
X529260Y525780D03*
X529260Y551180D03*
X529260Y576580D03*
X529260Y601980D03*
X529260Y627380D03*
X529260Y652780D03*
X529260Y678180D03*
X529260Y703580D03*
X529260Y728980D03*
X529260Y754380D03*
X529260Y779780D03*
X529260Y805180D03*
X529260Y830580D03*
X529260Y855980D03*
X529260Y881380D03*
X529260Y906780D03*
X529260Y932180D03*
D14*
X402010Y930880D03*
X456510Y930880D03*
D16*
X405010Y900580D03*
X453510Y900580D03*
D14*
X403860Y451880D03*
X429260Y451880D03*
X454660Y451880D03*
D17*
X403860Y441630D03*
X429260Y441630D03*
X454660Y441630D03*
D18*
X239600Y330200D03*
X217600Y320700D03*
X217600Y339700D03*
D19*
X690220Y777240D03*
X671220Y777240D03*
X192380Y431800D03*
X173380Y431800D03*
D20*
X111160Y824230D03*
X163160Y824230D03*
X111160Y836930D03*
X111160Y811530D03*
X111160Y798830D03*
X163160Y836930D03*
X163160Y811530D03*
X163160Y798830D03*
D19*
X705460Y751840D03*
X686460Y751840D03*
X700380Y812800D03*
X681380Y812800D03*
D21*
X224180Y542900D03*
X224180Y523900D03*
X243180Y533400D03*
D19*
X112420Y416560D03*
X131420Y416560D03*
X39980Y406400D03*
X20980Y406400D03*
D22*
X678180Y105410D03*
X684530Y111760D03*
X557530Y238125D03*
D23*
X698500Y63500D03*
X63500Y63500D03*
X63500Y889000D03*
X698500Y889000D03*
D22*
X539750Y226695D03*
X535305Y218440D03*
X504825Y916305D03*
X608965Y135255D03*
X598805Y125095D03*
X615950Y133985D03*
X608965Y142875D03*
M02*
