G04 EAGLE Gerber RS-274X export*
G75*
%MOMM*%
%FSLAX34Y34*%
%LPD*%
%INSoldermask Bottom*%
%IPPOS*%
%AMOC8*
5,1,8,0,0,1.08239X$1,22.5*%
G01*
%ADD10P,1.803519X8X292.500000*%
%ADD11P,1.803519X8X112.500000*%
%ADD12C,2.003200*%
%ADD13C,1.703200*%
%ADD14C,0.655600*%
%ADD15C,3.530600*%


D10*
X43180Y243840D03*
X43180Y218440D03*
D11*
X454660Y132080D03*
X454660Y157480D03*
X43180Y281940D03*
X43180Y307340D03*
D12*
X340360Y932180D03*
X340360Y906780D03*
X340360Y779780D03*
X340360Y754380D03*
X340360Y881380D03*
X340360Y855980D03*
X340360Y805180D03*
X340360Y830580D03*
X340360Y728980D03*
X340360Y703580D03*
X340360Y678180D03*
X340360Y652780D03*
X340360Y627380D03*
X340360Y601980D03*
X340360Y576580D03*
X340360Y551180D03*
X340360Y525780D03*
X340360Y500380D03*
X340360Y474980D03*
X340360Y449580D03*
X518160Y449580D03*
X518160Y474980D03*
X518160Y500380D03*
X518160Y525780D03*
X518160Y551180D03*
X518160Y576580D03*
X518160Y601980D03*
X518160Y627380D03*
X518160Y652780D03*
X518160Y678180D03*
X518160Y703580D03*
X518160Y728980D03*
X518160Y754380D03*
X518160Y779780D03*
X518160Y805180D03*
X518160Y830580D03*
X518160Y855980D03*
X518160Y881380D03*
X518160Y906780D03*
X518160Y932180D03*
X402010Y930880D03*
X456510Y930880D03*
D13*
X405010Y900580D03*
X453510Y900580D03*
D12*
X403860Y451880D03*
X429260Y451880D03*
X454660Y451880D03*
D14*
X678180Y105410D03*
X684530Y111760D03*
X557530Y238125D03*
D15*
X698500Y63500D03*
X63500Y63500D03*
X63500Y889000D03*
X698500Y889000D03*
D14*
X539750Y226695D03*
X535305Y218440D03*
X504825Y916305D03*
X608965Y135255D03*
X598805Y125095D03*
X615950Y133985D03*
X608965Y142875D03*
M02*
